<?xml version="1.0" encoding="iso-8859-1"?>
<!-- Generator: Adobe Illustrator 19.0.0, SVG Export Plug-In . SVG Version: 6.00 Build 0)  -->
<svg version="1.1" id="Capa_1" xmlns="http://www.w3.org/2000/svg" xmlns:xlink="http://www.w3.org/1999/xlink" x="0px" y="0px"
	 viewBox="0 0 512.009 512.009" style="enable-background:new 0 0 512.009 512.009;" xml:space="preserve">
<g>
	<g>
		<path d="M435.192,0.004c-22.835,0-42.214,15.027-48.794,35.712c-3.883-2.304-7.817-4.506-11.776-6.588
			c-4.173-2.185-9.327-0.58-11.52,3.593s-0.572,9.344,3.601,11.529c5.931,3.115,11.759,6.571,17.459,10.197
			c1.69,26.718,23.902,47.957,51.029,47.957c28.237,0,51.2-22.963,51.2-51.2S463.428,0.004,435.192,0.004z"/>
	</g>
</g>
<g>
	<g>
		<path d="M240.734,8.862c-0.452-4.693-4.617-8.124-9.301-7.689c-16.367,1.562-32.631,4.719-48.35,9.387
			c-4.514,1.34-7.091,6.093-5.751,10.607c1.092,3.712,4.489,6.11,8.175,6.11c0.802,0,1.621-0.119,2.432-0.358
			c14.66-4.352,29.841-7.296,45.116-8.755C237.747,17.711,241.186,13.547,240.734,8.862z"/>
	</g>
</g>
<g>
	<g>
		<path d="M329.003,10.586c-15.71-4.668-31.974-7.834-48.341-9.404c-4.668-0.418-8.866,2.995-9.31,7.68
			c-0.452,4.685,2.987,8.858,7.68,9.31c15.275,1.459,30.456,4.42,45.107,8.772c0.811,0.239,1.63,0.358,2.432,0.358
			c3.678,0,7.074-2.398,8.175-6.101C336.094,16.678,333.517,11.934,329.003,10.586z"/>
	</g>
</g>
<g>
	<g>
		<path d="M483.977,352.738c-4.267-2.005-9.344-0.145-11.341,4.122c-1.929,4.13-4.019,8.226-6.204,12.271
			c-8.653-6.699-19.473-10.726-31.24-10.726c-28.228,0-51.2,22.963-51.2,51.2c0,28.237,22.972,51.2,51.2,51.2
			c28.237,0,51.2-22.963,51.2-51.2c0-9.984-2.918-19.285-7.885-27.17c3.422-6.008,6.682-12.126,9.591-18.355
			C490.095,359.812,488.252,354.735,483.977,352.738z"/>
	</g>
</g>
<g>
	<g>
		<path d="M510.84,231.582c-0.444-4.685-4.599-8.09-9.301-7.68c-4.693,0.444-8.132,4.617-7.689,9.301
			c0.717,7.535,1.075,15.206,1.075,22.801c0,13.568-1.152,27.179-3.413,40.457c-0.794,4.642,2.33,9.054,6.98,9.847
			c0.486,0.085,0.964,0.119,1.442,0.119c4.079,0,7.689-2.935,8.397-7.1c2.432-14.225,3.661-28.8,3.661-43.332
			C511.992,247.864,511.608,239.646,510.84,231.582z"/>
	</g>
</g>
<g>
	<g>
		<path d="M20.471,296.401c-2.261-13.252-3.405-26.846-3.405-40.397c0-7.629,0.367-15.317,1.084-22.852
			c0.452-4.693-2.995-8.858-7.68-9.31c-4.651-0.401-8.858,2.995-9.301,7.68c-0.768,8.073-1.161,16.307-1.161,24.474
			c0,14.515,1.229,29.065,3.652,43.264c0.7,4.173,4.301,7.108,8.388,7.108c0.478,0,0.964-0.034,1.442-0.12
			C18.133,305.455,21.265,301.052,20.471,296.401z"/>
	</g>
</g>
<g>
	<g>
		<path d="M375.441,221.879h-76.783v-34.116c0-9.421-7.663-17.084-17.084-17.084H128.017c-9.421,0-17.084,7.663-17.084,17.084
			v102.357c0,9.421,7.663,17.084,17.084,17.084h8.516v42.667c0,3.447,2.082,6.562,5.274,7.885c1.058,0.435,2.159,0.649,3.26,0.649
			c2.219,0,4.403-0.87,6.033-2.5l48.708-48.7h4.992v34.116c0,9.421,7.663,17.084,17.084,17.084h81.775l48.7,48.7
			c1.638,1.63,3.823,2.5,6.042,2.5c1.092,0,2.21-0.213,3.26-0.649c3.191-1.323,5.265-4.437,5.265-7.885v-42.667h8.516
			c9.421,0,17.084-7.663,17.084-17.084V238.963C392.525,229.542,384.862,221.879,375.441,221.879z M298.667,264.538
			c4.71,0,8.533,3.823,8.533,8.533s-3.823,8.533-8.533,8.533h-51.2c-4.71,0-8.533-3.823-8.533-8.533c0-4.71,3.823-8.533,8.533-8.533
			H298.667z M221.884,221.871c-9.421,0-17.084,7.663-17.084,17.084v51.183h-8.533c-2.261,0-4.437,0.896-6.033,2.5L153.6,329.271
			v-30.601c0-4.71-3.823-8.533-8.533-8.533L128,290.121l0.017-102.383l153.583,0.017v34.116H221.884z M264.533,315.738h-17.067
			c-4.71,0-8.533-3.823-8.533-8.533s3.823-8.533,8.533-8.533h17.067c4.71,0,8.533,3.823,8.533,8.533
			S269.244,315.738,264.533,315.738z M349.867,315.738h-51.2c-4.71,0-8.533-3.823-8.533-8.533s3.823-8.533,8.533-8.533h51.2
			c4.71,0,8.533,3.823,8.533,8.533S354.577,315.738,349.867,315.738z M349.867,281.604H332.8c-4.71,0-8.533-3.823-8.533-8.533
			c0-4.71,3.823-8.533,8.533-8.533h17.067c4.71,0,8.533,3.823,8.533,8.533C358.4,277.781,354.577,281.604,349.867,281.604z"/>
	</g>
</g>
<g>
	<g>
		<path d="M171.511,479.509c-6.042-2.287-12.023-4.924-17.911-7.723v-2.466c0-12.715-5.7-24.013-14.549-31.829
			c-10.692,23.765-34.543,40.38-62.251,40.38c-27.708,0-51.558-16.614-62.242-40.38C5.709,445.316,0,456.614,0,469.321v34.15
			c0,4.71,3.823,8.533,8.533,8.533h136.533c4.71,0,8.533-3.823,8.533-8.533V490.62c3.934,1.715,7.893,3.345,11.87,4.847
			c0.998,0.375,2.014,0.555,3.021,0.555c3.448,0,6.69-2.108,7.987-5.513C178.142,486.106,175.923,481.182,171.511,479.509z"/>
	</g>
</g>
<g>
	<g>
		<path d="M294.135,500.681c-0.563-4.668-4.787-8.013-9.489-7.45c-18.884,2.261-38.434,2.261-57.412-0.017
			c-4.693-0.563-8.926,2.773-9.489,7.45c-0.563,4.676,2.773,8.926,7.458,9.489c10.163,1.229,20.531,1.843,30.797,1.843
			c10.249,0,20.574-0.614,30.677-1.826C291.354,509.615,294.69,505.365,294.135,500.681z"/>
	</g>
</g>
<g>
	<g>
		<path d="M76.8,358.404c-11.759,0-22.579,4.028-31.241,10.726c-2.176-4.045-4.267-8.132-6.204-12.271
			c-1.997-4.267-7.074-6.127-11.341-4.122c-4.267,1.997-6.118,7.074-4.122,11.341c2.91,6.229,6.17,12.348,9.591,18.355
			c-4.966,7.885-7.885,17.186-7.885,27.17c0,28.237,22.972,51.2,51.2,51.2c28.237,0,51.2-22.963,51.2-51.2
			C128,381.367,105.037,358.404,76.8,358.404z"/>
	</g>
</g>
<g>
	<g>
		<path d="M148.89,32.73c-2.185-4.173-7.347-5.777-11.52-3.593c-3.959,2.074-7.893,4.284-11.776,6.588
			C119.014,15.04,99.635,0.013,76.8,0.013c-28.228,0-51.2,22.963-51.2,51.2c0,28.237,22.972,51.191,51.2,51.191
			c27.136,0,49.348-21.231,51.038-47.957c5.692-3.627,11.52-7.091,17.451-10.197C149.461,42.065,151.074,36.902,148.89,32.73z"/>
	</g>
</g>
<g>
	<g>
		<path d="M139.051,79.091c-10.692,23.765-34.543,40.38-62.251,40.38c-27.708,0-51.558-16.614-62.242-40.38
			C5.709,86.916,0,98.214,0,110.921v34.15c0,4.71,3.823,8.533,8.533,8.533h12.851c-1.724,3.925-3.354,7.893-4.855,11.87
			c-1.673,4.412,0.546,9.335,4.958,11.008c0.998,0.375,2.014,0.555,3.021,0.555c3.447,0,6.69-2.108,7.987-5.513
			c2.295-6.05,4.924-12.032,7.723-17.92h104.849c4.71,0,8.533-3.823,8.533-8.533v-34.15C153.6,98.206,147.9,86.908,139.051,79.091z"
			/>
	</g>
</g>
<g>
	<g>
		<path d="M497.451,79.091c-10.692,23.765-34.543,40.38-62.251,40.38c-27.708,0-51.558-16.614-62.242-40.38
			c-8.849,7.825-14.558,19.123-14.558,31.829v34.15c0,4.71,3.823,8.533,8.533,8.533h104.849c2.799,5.888,5.436,11.87,7.731,17.92
			c1.289,3.405,4.531,5.513,7.979,5.513c1.007,0,2.031-0.179,3.021-0.555c4.412-1.672,6.63-6.596,4.958-11.008
			c-1.51-3.977-3.14-7.936-4.855-11.87h12.851c4.71,0,8.533-3.823,8.533-8.533v-34.15C512,98.214,506.3,86.908,497.451,79.091z"/>
	</g>
</g>
<g>
	<g>
		<path d="M497.451,437.491c-10.692,23.765-34.543,40.38-62.251,40.38c-27.708,0-51.558-16.614-62.242-40.38
			c-8.849,7.825-14.558,19.123-14.558,31.829v2.466c-5.888,2.799-11.87,5.436-17.911,7.723c-4.412,1.664-6.63,6.588-4.958,10.999
			c1.289,3.413,4.54,5.513,7.987,5.513c0.998,0,2.022-0.179,3.021-0.555c3.977-1.502,7.945-3.132,11.87-4.847v12.851
			c0,4.71,3.823,8.533,8.533,8.533h136.533c4.71,0,8.533-3.823,8.533-8.533v-34.15C512,456.614,506.3,445.308,497.451,437.491z"/>
	</g>
</g>
<g>
</g>
<g>
</g>
<g>
</g>
<g>
</g>
<g>
</g>
<g>
</g>
<g>
</g>
<g>
</g>
<g>
</g>
<g>
</g>
<g>
</g>
<g>
</g>
<g>
</g>
<g>
</g>
<g>
</g>
</svg>
