<svg id="Layer_1" enable-background="new 0 0 512.021 512.021" height="512" viewBox="0 0 512.021 512.021" width="512" xmlns="http://www.w3.org/2000/svg"><g><ellipse cx="254.953" cy="188.664" rx="82.333" ry="82.333" transform="matrix(.924 -.383 .383 .924 -52.791 111.928)"/><path d="m54.476 490.682c0 11.767 9.573 21.34 21.34 21.34h347.512v-42.68h-347.512c-11.767 0-21.34 9.573-21.34 21.34z"/><path d="m254.953 300.997c-61.94 0-112.333-50.392-112.333-112.333s50.393-112.333 112.333-112.333 112.332 50.393 112.332 112.333c0 9.671-1.229 19.061-3.538 28.021l59.58 49.994v-266.679h-306.749v439.342h306.749v-44.227l-123.384-103.532c-13.783 6.048-29 9.414-44.99 9.414z"/><path d="m75.816 439.342h10.763v-439.342h-10.763c-28.309 0-51.34 23.031-51.34 51.34v439.342c0-28.309 23.031-51.34 51.34-51.34z"/><path d="m456.012 383.379c8.107 6.803 20.238 5.741 27.042-2.366 3.295-3.927 4.864-8.903 4.417-14.01s-2.855-9.735-6.783-13.03l-25.413-21.324-24.675 29.407z"/><path d="m326.794 274.951 80.825 67.821 24.675-29.407-80.615-67.644c-6.58 11.112-15.017 21-24.885 29.23z"/></g></svg>