<svg id="Capa_1" enable-background="new 0 0 511.991 511.991" height="512" viewBox="0 0 511.991 511.991" width="512" xmlns="http://www.w3.org/2000/svg"><path d="m270.997 299.991c-16.538 0-30 13.462-30 30 16.538 0 30-13.462 30-30z"/><path d="m180.997 299.991c0 16.538 13.462 30 30 30 0-16.538-13.462-30-30-30z"/><path d="m210.997 201.143v-87.583c-18.867-9.639-41.133-9.639-60 0v87.583c9.741-3.223 19.878-4.834 30-4.834s20.258 1.612 30 4.834z"/><path d="m300.997 201.143v-87.583c-18.935-9.677-41.094-9.084-60 .646v87.294c19.5-6.456 40.472-6.816 60-.357z"/><path d="m63.428 302.716c37.661 56.777 57.568 125.252 57.568 194.246 0 8.276 6.709 15 15 15l150 .029c3.984 0 7.793-1.582 10.605-4.395s4.395-6.621 4.395-10.605c0-24.814 20.186-46 45-46h60c8.291 0 15-6.709 15-15v-76c0-24.814 20.186-45 45-45 5.537 0 10.62-3.047 13.228-7.925s2.314-10.796-.747-15.396l-58.48-88.608-.103-34.131c-12.127-93.411-94.74-169.696-195.153-168.925-108.26.831-193.744 88.791-193.744 194.985 0 38.496 11.206 75.747 32.431 107.725zm57.569-197.725c0-5.01 2.505-9.697 6.68-12.48 29.718-19.803 67.288-21.216 98.32-4.695 31.033-16.522 68.602-15.108 98.32 4.695 4.175 2.783 6.68 7.471 6.68 12.48v120c0 5.537-3.047 10.62-7.925 13.228-4.849 2.622-10.781 2.329-15.396-.747-20.142-13.418-45.557-14.722-66.68-3.911v44.775c8.86-5.167 19.023-8.344 30-8.344h15c8.291 0 15 6.709 15 15v15c0 33.091-26.909 60-60 60-3.021 0-33.021 0-30 0-33.091 0-60-26.909-60-60v-15c0-8.291 6.709-15 15-15h15c10.977 0 21.14 3.177 30 8.344v-44.011c-21.196-10.92-46.485-10.307-66.68 3.148-4.57 3.076-10.518 3.369-15.396.747-4.878-2.607-7.925-7.69-7.925-13.228v-120.001z"/></svg>