<?xml version="1.0" encoding="iso-8859-1"?>
<!-- Generator: Adobe Illustrator 19.0.0, SVG Export Plug-In . SVG Version: 6.00 Build 0)  -->
<svg version="1.1" id="Layer_1" xmlns="http://www.w3.org/2000/svg" xmlns:xlink="http://www.w3.org/1999/xlink" x="0px" y="0px"
	 viewBox="0 0 512 512" style="enable-background:new 0 0 512 512;" xml:space="preserve">
<g>
	<g>
		<path d="M448,373.333V96c0-2.833-1.125-5.542-3.125-7.542L359.542,3.125c-2-2-4.708-3.125-7.542-3.125H192
			c-23.531,0-42.667,19.135-42.667,42.667v269.414c-10.307,1.658-19.023,3.699-25.285,5.423
			c-3.212-11.169-12.328-20.174-24.413-22.587L12.76,277.542c-3.146-0.615-6.385,0.188-8.854,2.208C1.438,281.781,0,284.802,0,288
			v170.667c0,5.896,4.771,10.667,10.667,10.667H77.5c13.165,0,24.384-8.382,29.212-20.147C130.587,460.569,241.055,512,288,512
			c41.375,0,126.531-41.865,182.875-69.563c14.708-7.229,26.865-13.208,34.75-16.667C509.5,424.063,512,420.229,512,416
			C512,390.875,485.688,373.333,448,373.333z M103.917,327.802L88.052,438.844C87.313,444.063,82.771,448,77.5,448H21.333V301.01
			l74.115,14.823C101,316.948,104.719,322.198,103.917,327.802z M362.667,36.417l48.917,48.917H384
			c-11.76,0-21.333-9.573-21.333-21.333V36.417z M170.667,42.667c0-11.76,9.573-21.333,21.333-21.333h149.333V64
			c0,23.531,19.135,42.667,42.667,42.667h42.667v268.967c-21.637,3.698-48.674,11.027-64.552,15.589
			c-2.902-30.612-42.124-41.448-82.656-49.681c-18.5-3.75-32.26-10.385-45.573-16.802c-16.417-7.927-31.927-15.406-52.552-15.406
			c-3.622,0-7.16,0.177-10.667,0.383V42.667z M461.458,423.292C410.208,448.49,324.417,490.667,288,490.667
			c-38.802,0-140.688-45.427-176.667-62.927c-0.043-0.021-0.09-0.013-0.133-0.034l12.557-87.898
			c7.759-2.43,31.513-9.141,57.576-9.141c15.75,0,27.906,5.865,43.292,13.281c13.813,6.667,29.479,14.219,50.583,18.51
			c46.354,9.396,66.125,19.031,66.125,32.208c0,2.604-0.792,4.208-2.823,5.719c-6.76,5.073-33.229,13.594-132.813-15.948
			c-5.635-1.698-11.583,1.552-13.26,7.198s1.552,11.583,7.198,13.26c49.125,14.563,86.698,21.823,113.323,21.823
			c17.365,0,30.073-3.083,38.313-9.24c0.711-0.53,1.233-1.181,1.88-1.753c0.665-0.072,1.319,0.008,1.984-0.195
			C374,409.729,427.438,394.667,448,394.667c17.396,0,35.698,5.292,41.094,15.208C481.646,413.375,472.219,418.01,461.458,423.292z"
			/>
	</g>
</g>
<g>
</g>
<g>
</g>
<g>
</g>
<g>
</g>
<g>
</g>
<g>
</g>
<g>
</g>
<g>
</g>
<g>
</g>
<g>
</g>
<g>
</g>
<g>
</g>
<g>
</g>
<g>
</g>
<g>
</g>
</svg>
