<svg height="484pt" viewBox="-3 0 484 484" width="484pt" xmlns="http://www.w3.org/2000/svg"><path d="m238.9375 480.003906h-223.898438c-6.097656 0-11.039062-4.945312-11.039062-11.039062v-261.289063c0-6.097656 4.941406-11.039062 11.039062-11.039062h223.898438zm0 0" fill="#4671c6"/><path d="m462.960938 480.003906h-223.898438v-283.367187h223.898438c6.097656 0 11.039062 4.941406 11.039062 11.039062v261.289063c0 6.09375-4.941406 11.039062-11.039062 11.039062zm0 0" fill="#4671c6"/><path d="m238.9375 484h-223.898438c-8.292968 0-15.039062-6.746094-15.039062-15.039062v-261.289063c0-8.292969 6.746094-15.039063 15.039062-15.039063h223.898438c2.207031 0 4 1.792969 4 4v283.367188c0 2.210938-1.792969 4-4 4zm-223.898438-283.367188c-3.882812 0-7.039062 3.160157-7.039062 7.039063v261.289063c0 3.882812 3.15625 7.039062 7.039062 7.039062h219.898438v-275.367188zm0 0" fill="#3762cc"/><path d="m462.960938 484h-223.898438c-2.207031 0-4-1.792969-4-4v-283.367188c0-2.207031 1.792969-4 4-4h223.898438c8.292968 0 15.039062 6.746094 15.039062 15.039063v261.289063c0 8.292968-6.746094 15.039062-15.039062 15.039062zm-219.898438-8h219.898438c3.882812 0 7.039062-3.15625 7.039062-7.039062v-261.289063c0-3.878906-3.15625-7.039063-7.039062-7.039063h-219.898438zm0 0" fill="#3762cc"/><path d="m27.9375 438.46875s216.304688-85.371094 211.101562 21.75h-211.101562zm0 0" fill="#e0ebfc"/><path d="m238.871094 214.746094v-3.175782h-.394532c-12.566406-87.054687-210.542968-8.929687-210.542968-8.929687v235.820313s202.761718-80.023438 210.9375 12.105468v-226.179687h.164062c.167969-3.40625.105469-6.613281-.164062-9.640625zm0 0" fill="#e0ebfc"/><path d="m450.324219 438.46875v21.75h-211.101563c-5.203125-107.121094 211.101563-21.75 211.101563-21.75zm0 0" fill="#e0ebfc"/><path d="m239.386719 214.746094v-3.175782h.394531c12.566406-87.054687 210.542969-8.929687 210.542969-8.929687v235.820313s-202.761719-80.023438-210.9375 12.105468v-226.179687h-.164063c-.167968-3.40625-.101562-6.613281.164063-9.640625zm0 0" fill="#e0ebfc"/><g fill="#b9befc"><path d="m57.574219 256.042969c-2.917969 0-5.640625-1.808594-6.648438-4.6875-1.273437-3.636719.675781-7.605469 4.347657-8.863281 51.3125-17.578126 120.816406-34.496094 160.570312-15.289063 3.492188 1.6875 4.941406 5.859375 3.234375 9.316406-1.699219 3.457031-5.914063 4.890625-9.40625 3.207031-37.28125-18.015624-109.855469 2.25-149.796875 15.933594-.761719.261719-1.535156.382813-2.300781.382813zm0 0"/><path d="m57.574219 297.722656c-2.917969 0-5.640625-1.808594-6.648438-4.691406-1.273437-3.636719.675781-7.601562 4.347657-8.859375 51.3125-17.574219 120.816406-34.496094 160.570312-15.289063 3.492188 1.6875 4.941406 5.855469 3.234375 9.316407-1.699219 3.453125-5.914063 4.890625-9.40625 3.203125-37.28125-18.011719-109.855469 2.253906-149.796875 15.9375-.761719.257812-1.535156.382812-2.300781.382812zm0 0"/><path d="m57.574219 339.402344c-2.917969 0-5.640625-1.808594-6.648438-4.691406-1.273437-3.636719.675781-7.601563 4.347657-8.859376 51.3125-17.578124 120.816406-34.496093 160.570312-15.292968 3.492188 1.6875 4.941406 5.859375 3.234375 9.316406-1.699219 3.457031-5.914063 4.894531-9.40625 3.207031-37.28125-18.015625-109.855469 2.253907-149.796875 15.9375-.761719.257813-1.535156.382813-2.300781.382813zm0 0"/><path d="m57.574219 381.082031c-2.917969 0-5.640625-1.808593-6.648438-4.691406-1.273437-3.632813.675781-7.601563 4.347657-8.859375 51.3125-17.578125 120.816406-34.496094 160.570312-15.289062 3.492188 1.6875 4.941406 5.859374 3.234375 9.316406-1.699219 3.457031-5.914063 4.890625-9.40625 3.207031-37.28125-18.015625-109.855469 2.25-149.796875 15.933594-.761719.257812-1.535156.382812-2.300781.382812zm0 0"/><path d="m421.023438 256.042969c-.761719 0-1.542969-.121094-2.300782-.386719-39.945312-13.679688-112.519531-33.945312-149.796875-15.933594-3.496093 1.683594-7.707031.25-9.410156-3.207031s-.253906-7.628906 3.238281-9.316406c39.753906-19.207031 109.261719-2.285157 160.566406 15.289062 3.671876 1.257813 5.621094 5.226563 4.351563 8.863281-1.007813 2.882813-3.734375 4.691407-6.648437 4.691407zm0 0"/><path d="m421.023438 297.722656c-.761719 0-1.542969-.125-2.300782-.386718-39.945312-13.683594-112.519531-33.949219-149.796875-15.9375-3.496093 1.691406-7.707031.253906-9.410156-3.203126-1.703125-3.460937-.253906-7.628906 3.238281-9.316406 39.753906-19.207031 109.261719-2.285156 160.566406 15.289063 3.671876 1.257812 5.621094 5.226562 4.351563 8.859375-1.007813 2.886718-3.734375 4.695312-6.648437 4.695312zm0 0"/><path d="m421.023438 339.402344c-.761719 0-1.542969-.125-2.300782-.386719-39.941406-13.683594-112.515625-33.949219-149.796875-15.9375-3.496093 1.6875-7.707031.253906-9.410156-3.203125-1.703125-3.460938-.253906-7.628906 3.238281-9.316406 39.75-19.207032 109.257813-2.289063 160.566406 15.292968 3.671876 1.257813 5.621094 5.222657 4.351563 8.859376-1.007813 2.882812-3.734375 4.691406-6.648437 4.691406zm0 0"/><path d="m421.023438 381.082031c-.761719 0-1.542969-.125-2.300782-.386719-39.945312-13.679687-112.519531-33.949218-149.796875-15.933593-3.496093 1.6875-7.707031.25-9.410156-3.207031-1.703125-3.457032-.253906-7.628907 3.238281-9.316407 39.753906-19.207031 109.261719-2.285156 160.566406 15.289063 3.671876 1.257812 5.621094 5.226562 4.351563 8.859375-1.007813 2.886719-3.734375 4.695312-6.648437 4.695312zm0 0"/></g><path d="m239.039062 464.21875h-211.101562c-2.210938 0-4-1.789062-4-4v-21.75c0-1.640625 1.003906-3.117188 2.53125-3.71875 5.914062-2.335938 145.464844-56.746094 197.375-19.550781 13.710938 9.828125 20.171875 25.039062 19.191406 45.214843-.105468 2.128907-1.863281 3.804688-3.996094 3.804688zm-207.101562-8h203.195312c-.039062-15.554688-5.277343-26.871094-15.953124-34.519531-44.800782-32.09375-167.996094 12.285156-187.242188 19.523437zm0 0" fill="#3762cc"/><path d="m238.871094 454.566406c-2.0625 0-3.800782-1.574218-3.984375-3.644531-1.238281-13.984375-7.179688-24.078125-18.160157-30.859375-50.609374-31.246094-185.957031 21.582031-187.320312 22.121094-1.226562.488281-2.621094.332031-3.71875-.414063-1.09375-.746093-1.75-1.984375-1.75-3.308593v-235.824219c0-1.640625 1.003906-3.117188 2.53125-3.71875 5.628906-2.21875 138.40625-54.003907 193.175781-22.222657 12.441407 7.21875 20.011719 18.183594 22.527344 32.609376.445313.644531.703125 1.421874.703125 2.265624v3c.277344 3.203126.328125 6.570313.164062 10.007813-.019531.332031-.074218.648437-.164062.953125v225.035156c0 2.140625-1.683594 3.902344-3.820312 3.996094-.066407.003906-.125.003906-.183594.003906zm-206.933594-249.175781v227.265625c26.65625-9.917969 140.460938-49.367188 188.992188-19.398438 5.757812 3.554688 10.414062 7.957032 13.941406 13.167969v-202.039062c0-.457031.078125-.894531.21875-1.300781.089844-2.75.023437-5.433594-.203125-7.988282-.011719-.117187-.015625-.234375-.015625-.351562v-1.445313c-.171875-.359375-.292969-.75-.351563-1.160156-1.863281-12.898437-8.042969-22.230469-18.894531-28.527344-47.515625-27.570312-164.9375 14.726563-183.6875 21.777344zm207.101562 18.996094h.019532zm0 0" fill="#3762cc"/><path d="m450.324219 464.21875h-211.101563c-2.132812 0-3.894531-1.671875-3.996094-3.804688-.980468-20.175781 5.476563-35.390624 19.195313-45.214843 51.917969-37.195313 191.457031 17.214843 197.371094 19.550781 1.527343.601562 2.53125 2.078125 2.53125 3.71875v21.75c0 2.210938-1.789063 4-4 4zm-207.195313-8h203.195313v-14.996094c-19.25-7.238281-142.464844-51.609375-187.246094-19.519531-10.671875 7.648437-15.910156 18.960937-15.949219 34.515625zm0 0" fill="#3762cc"/><path d="m239.390625 454.566406c-.058594 0-.121094 0-.179687-.003906-2.136719-.09375-3.824219-1.855469-3.824219-3.996094v-225.070312c-.089844-.292969-.144531-.597656-.160157-.917969-.167968-3.4375-.113281-6.804687.160157-10.007813v-3c0-.839843.261719-1.621093.707031-2.265624 2.511719-14.425782 10.085938-25.390626 22.523438-32.609376 54.769531-31.789062 187.546874 20 193.175781 22.21875 1.527343.605469 2.53125 2.078126 2.53125 3.722657v235.824219c0 1.324218-.652344 2.5625-1.75 3.304687-1.09375.746094-2.484375.902344-3.714844.414063-1.363281-.539063-136.75-53.351563-187.324219-22.117188-10.976562 6.785156-16.917968 16.875-18.160156 30.859375-.183594 2.070313-1.921875 3.644531-3.984375 3.644531zm67.75-52.351562c53.175781 0 119.625 23.164062 139.183594 30.4375v-227.261719c-18.746094-7.042969-136.191407-49.339844-183.695313-21.773437-10.847656 6.292968-17.027344 15.625-18.890625 28.523437-.054687.414063-.179687.800781-.351562 1.160156v1.445313c0 .117187-.003907.234375-.015625.351562-.226563 2.574219-.292969 5.273438-.199219 8.042969.136719.394531.214844.8125.214844 1.246094v202.039062c3.527343-5.210937 8.183593-9.613281 13.941406-13.167969 12.933594-7.984374 30.5-11.042968 49.8125-11.042968zm-67.753906-187.46875h.019531zm0 0" fill="#3762cc"/><path d="m399 163.996094c0 88.367187-71.632812 160-160 160s-160-71.632813-160-160c0-88.363282 71.632812-160 160-160s160 71.636718 160 160zm0 0" fill="#e0ebfc"/><path d="m263.238281 89.175781-7.289062 8.28125c-1.085938 1.234375-1.6875 2.828125-1.6875 4.472657v17.070312c0 .90625.183593 1.804688.535156 2.640625l2.152344 5.085937c1.523437 3.601563 5.769531 5.167969 9.269531 3.421876l10.742188-5.371094c3.242187-1.621094 4.636718-5.511719 3.152343-8.824219l-5.125-11.449219c-.472656-1.066406-.667969-2.238281-.558593-3.398437l.640624-6.824219c.371094-3.972656-2.753906-7.40625-6.746093-7.40625-1.949219 0-3.800781.839844-5.085938 2.300781zm0 0" fill="#6bdddd"/><path d="m348.824219 51.410156-25.902344 6.074219c-1.082031.253906-2.066406.820313-2.832031 1.632813l-6.75 7.148437c-.382813.40625-.703125.863281-.953125 1.359375l-3.820313 7.644531c-.523437 1.042969-1.355468 1.90625-2.386718 2.457031l-.007813.007813c-2.726563 1.46875-3.777344 4.84375-2.359375 7.597656l3.53125 6.863281c1.554688 3.023438 5.398438 4.011719 8.21875 2.113282l7.003906-4.714844c2.328125-1.5625 5.445313-1.199219 7.34375.859375l3.925782 4.25c1.726562 1.871094 1.996093 4.671875.652343 6.839844l-9.058593 14.640625c-1.039063 1.671875-2.863282 2.691406-4.832032 2.691406h-18.167968c-2.230469 0-4.257813 1.308594-5.175782 3.339844l-4.988281 11.046875c-.332031.730469-.503906 1.53125-.503906 2.335937v3.707032c0 1.335937.472656 2.632812 1.332031 3.652343l15.503906 18.460938c1.335938 1.589843 3.429688 2.324219 5.464844 1.917969l23.222656-4.664063c.96875-.195313 1.867188-.640625 2.613282-1.289063l11.324218-9.871093c.484375-.421875 1.035156-.757813 1.632813-.996094l7.171875-2.855469c1.984375-.789062 4.242187-.398437 5.847656 1.011719l11.953125 10.503906c1.230469 1.078125 1.933594 2.632813 1.933594 4.265625v11.484375c0 2.117188-1.183594 4.058594-3.0625 5.039063l-21.109375 10.976562c-.550782.285156-1.144532.480469-1.753906.574219l-31.144532 4.789063c-.289062.046874-.574218.066406-.867187.066406h-14.707031c-2.070313 0-3.976563 1.128906-4.976563 2.941406l-3.878906 7.058594-5.976563 11.488281c-.347656.667969-.824218 1.261719-1.402344 1.746094l-5.378906 4.484375c-1.679687 1.394531-2.410156 3.621094-1.875 5.742187.925782 3.667969 2.304688 9.070313 2.628906 10.042969.351563 1.058594 2.683594 6.566406 4.035157 9.742188.617187 1.445312 1.804687 2.5625 3.28125 3.101562l11.253906 4.09375c1.824219.664062 3.183594 2.210938 3.605469 4.105469l1.105468 4.96875c.144532.65625.171876 1.328125.082032 1.992187l-2.296875 16.992188c-.042969.335937-.058594.671875-.042969 1.011718l.765625 17.414063c.183594 4.25 4.777344 6.75 8.492187 4.683594 49.179688-27.296875 82.460938-79.75 82.460938-139.984375 0-43.121094-17.0625-82.257813-44.804688-111.03125-1.382812-1.429688-3.429687-2.007813-5.371093-1.554688zm0 0" fill="#6bdddd"/><path d="m203.453125 320.03125-3.121094-9.367188-6.667969-8.585937-8.734374-9.367187c-1.289063-1.382813-2.003907-3.203126-2.003907-5.09375v-8.464844c0-3.421875-2.328125-6.40625-5.648437-7.242188l-6.714844-1.6875c-.59375-.148437-1.203125-.226562-1.820312-.226562h-10.648438c-1.980469 0-3.878906-.785156-5.28125-2.183594l-6.1875-6.1875c-1.058594-1.058594-1.773438-2.414062-2.054688-3.882812l-1.707031-8.972657c-.339843-1.785156-1.320312-3.386719-2.757812-4.5l-3.542969-2.75c-2.839844-2.203125-6.84375-2.070312-9.53125.3125l-.007812.007813c-2.710938 2.402344-6.757813 2.515625-9.597657.261718l-5.125-4.070312c-.855469-.679688-1.554687-1.542969-2.039062-2.519531l-5.328125-10.691407c-1.195313-2.398437-1.011719-5.257812.480468-7.484374l4.871094-7.273438c.898438-1.339844 2.203125-2.355469 3.730469-2.886719l6.203125-2.179687c1.789062-.628906 3.269531-1.914063 4.148438-3.59375l6.632812-12.738282 7.054688-10.816406c1.035156-1.585937 1.429687-3.503906 1.101562-5.371094l-1.492188-8.476562-1.699218-13.679688c-.238282-1.917968.277344-3.851562 1.4375-5.398437l4.761718-6.355469c2.023438-2.695312 5.601563-3.703125 8.730469-2.460937l3.445313 1.367187c.875.347656 1.8125.527344 2.753906.527344h13.910156c2.496094 0 4.828125-1.246094 6.210938-3.324219l8.53125-12.792969c.816406-1.226562 1.253906-2.667968 1.253906-4.144531v-15.542969c0-1.84375-.679688-3.621093-1.910156-4.992187l-11.683594-13.003906c-.757812-.84375-1.695312-1.5-2.742188-1.925781l-12.023437-4.890626c-5.023437-2.042968-8.308594-6.925781-8.308594-12.351562v-8.035156c0-2.308594-1.066406-4.488282-2.894531-5.902344l-6.957031-5.390625c-2.867188-2.222656-6.929688-2.078125-9.605469.375-31.882812 29.242187-51.875 71.242187-51.875 117.917969 0 76.148437 53.199219 139.867187 124.453125 156.035156zm0 0" fill="#6bdddd"/><path d="m137.664062 208.917969 19.277344 4.050781c1.332032.28125 2.53125 1.003906 3.402344 2.050781l4.421875 5.324219c1.007813 1.207031 2.441406 1.976562 4.007813 2.144531l12.191406 1.296875c1.273437.136719 2.472656.671875 3.417968 1.53125l7.96875 7.222656c1.261719 1.144532 1.984376 2.769532 1.984376 4.476563v.003906c0 3.679688-3.269532 6.503907-6.910157 5.976563l-19.773437-2.875c-1.082032-.15625-2.097656-.601563-2.945313-1.292969l-10.363281-8.445313c-.875-.710937-1.535156-1.660156-1.898438-2.730468l-1.378906-4.035156c-.835937-2.441407-3.132812-4.085938-5.714844-4.085938h-4.976562c-3.335938 0-6.039062-2.707031-6.039062-6.042969v-4.566406h3.328124zm0 0" fill="#6bdddd"/><path d="m239 328c-90.429688 0-164-73.570312-164-164s73.570312-164 164-164 164 73.570312 164 164-73.570312 164-164 164zm0-320c-86.019531 0-156 69.980469-156 156s69.980469 156 156 156 156-69.980469 156-156-69.980469-156-156-156zm0 0" fill="#3762cc"/><path d="m465.695312 372.5c-7.554687 7.554688-19.804687 7.554688-27.359374 0l-64.382813-64.382812c-2.417969-2.417969-2.417969-6.335938 0-8.753907l18.605469-18.601562c2.417968-2.417969 6.335937-2.417969 8.753906 0l64.382812 64.378906c7.550782 7.554687 7.550782 19.804687 0 27.359375zm0 0" fill="#a4c9ff"/><path d="m392.351562 280.96875-20.679687-20.679688c-2.605469 3.359376-5.414063 6.609376-8.496094 9.691407s-6.332031 5.894531-9.695312 8.496093l20.679687 20.679688zm0 0" fill="#ffea92"/><path d="m362.851562 125.808594c-39.835937-39.835938-104.511718-39.980469-144.171874-.320313-39.660157 39.660157-39.515626 104.332031.324218 144.171875 39.835938 39.835938 104.511719 39.980469 144.167969.320313 39.660156-39.660157 39.515625-104.335938-.320313-144.171875zm-19.617187 124.234375c-13.886719 13.886719-32.414063 21.507812-52.167969 21.460937-19.742187-.050781-38.285156-7.75-52.222656-21.6875-28.84375-28.839844-28.945312-75.671875-.226562-104.390625 13.886718-13.886719 32.414062-21.507812 52.171874-21.460937 19.738282.050781 38.285157 7.75 52.222657 21.6875s21.640625 32.488281 21.683593 52.234375c.042969 19.75-7.578124 38.269531-21.460937 52.15625zm0 0" fill="#f9a7a7"/><path d="m452.015625 382.15625c-5.976563 0-11.957031-2.277344-16.507813-6.828125l-64.382812-64.382813c-3.972656-3.972656-3.972656-10.4375 0-14.410156l18.605469-18.601562c1.921875-1.925782 4.484375-2.988282 7.207031-2.988282 2.71875 0 5.28125 1.0625 7.207031 2.988282l64.378907 64.378906c9.105468 9.101562 9.105468 23.914062 0 33.011719-4.554688 4.554687-10.53125 6.832031-16.507813 6.832031zm-55.082031-99.207031c-.558594 0-1.121094.210937-1.546875.640625l-18.605469 18.601562c-.851562.855469-.851562 2.246094 0 3.097656l64.382812 64.382813c5.984376 5.980469 15.714844 5.984375 21.703126 0 5.980468-5.984375 5.980468-15.71875 0-21.703125l-64.382813-64.378906c-.429687-.429688-.988281-.640625-1.550781-.640625zm0 0" fill="#3762cc"/><path d="m374.160156 303.15625c-1.058594 0-2.074218-.421875-2.824218-1.171875l-20.683594-20.679687c-.808594-.8125-1.234375-1.933594-1.164063-3.082032.074219-1.148437.636719-2.207031 1.542969-2.910156 3.429688-2.65625 6.476562-5.324219 9.3125-8.164062 2.84375-2.839844 5.511719-5.886719 8.160156-9.308594.703125-.910156 1.765625-1.472656 2.910156-1.546875 1.167969-.066407 2.269532.351562 3.082032 1.164062l20.679687 20.679688c1.5625 1.5625 1.5625 4.09375 0 5.65625l-18.1875 18.1875c-.75.753906-1.765625 1.175781-2.828125 1.175781zm-14.703125-24.363281 14.703125 14.703125 12.535156-12.527344-14.707031-14.707031c-1.949219 2.316406-3.953125 4.511719-5.984375 6.542969-2.035156 2.035156-4.222656 4.039062-6.546875 5.988281zm0 0" fill="#3762cc"/><path d="m291.382812 303.628906c-27.207031 0-54.449218-10.382812-75.207031-31.144531-41.398437-41.394531-41.542969-108.605469-.324219-149.828125 41.21875-41.214844 108.433594-41.070312 149.828126.324219 41.394531 41.398437 41.542968 108.609375.324218 149.828125-20.550781 20.546875-47.566406 30.820312-74.621094 30.820312zm-.914062-203.792968c-25.007812 0-49.96875 9.484374-68.960938 28.476562-38.097656 38.101562-37.953124 100.238281.320313 138.515625 19.199219 19.195313 44.398437 28.800781 69.554687 28.804687 25.007813 0 49.96875-9.488281 68.960938-28.480468 38.097656-38.101563 37.953125-100.238282-.320312-138.515625-19.199219-19.195313-44.398438-28.800781-69.554688-28.800781zm.785156 175.664062c-.066406 0-.132812 0-.199218 0-20.804688-.050781-40.351563-8.164062-55.039063-22.855469-30.402344-30.402343-30.503906-79.769531-.226563-110.046875 14.597657-14.601562 34.058594-22.632812 54.8125-22.632812h.195313c20.804687.050781 40.351563 8.167968 55.042969 22.855468 14.691406 14.695313 22.808594 34.246094 22.855468 55.054688.042969 20.824219-7.992187 40.351562-22.632812 54.992188-14.597656 14.601562-34.054688 22.632812-54.808594 22.632812zm-.652344-147.535156c-18.621093 0-36.066406 7.199218-49.15625 20.289062-27.15625 27.15625-27.054687 71.449219.226563 98.734375 13.183594 13.183594 30.726563 20.464844 49.402344 20.511719 18.695312.09375 36.207031-7.160156 49.332031-20.289062 13.128906-13.121094 20.332031-30.636719 20.289062-49.316407-.042968-18.679687-7.324218-36.230469-20.511718-49.417969-13.1875-13.179687-30.730469-20.464843-49.40625-20.511718-.058594 0-.117188 0-.175782 0zm0 0" fill="#3762cc"/></svg>