<svg id="Capa_1" enable-background="new 0 0 512 512" height="512" viewBox="0 0 512 512" width="512" xmlns="http://www.w3.org/2000/svg"><path d="m99.091 392.275h-84.068c-8.297 0-15.023-6.7-15.023-14.965s6.726-14.966 15.023-14.966h84.068c8.297 0 15.023 6.7 15.023 14.966 0 8.265-6.726 14.965-15.023 14.965z"/><path d="m496.977 512h-481.954c-8.297 0-15.023-6.7-15.023-14.966 0-8.265 6.726-14.966 15.023-14.966h481.953c8.297 0 15.023 6.7 15.023 14.966.001 8.266-6.725 14.966-15.022 14.966z"/><path d="m496.977 452.138h-481.954c-8.297 0-15.023-6.7-15.023-14.965s6.726-14.966 15.023-14.966h481.953c8.297 0 15.023 6.7 15.023 14.966.001 8.264-6.725 14.965-15.022 14.965z"/><path d="m495.923 14.949c-9.677-9.64-22.581-14.949-36.335-14.949s-26.659 5.309-36.335 14.949l-216.698 215.865 72.53 72.531 216.839-216.005c20.034-19.958 20.034-52.433-.001-72.391z"/><path d="m185.305 251.991c-1.443 1.437-2.602 3.167-3.368 5.116l-33.155 84.255c-2.18 5.539-.859 11.838 3.364 16.044 2.871 2.861 6.713 4.383 10.626 4.383 1.842 0 3.701-.337 5.48-1.033l84.58-33.028c1.893-.74 3.58-1.845 4.994-3.218z"/></svg>