<?xml version="1.0"?>
<svg xmlns="http://www.w3.org/2000/svg" viewBox="0 0 512 512" width="512" height="512"><g id="Solid"><path d="M64,184H80V300.687l-8,8-8-8Zm97.376,296H272V464H184A24.039,24.039,0,0,0,161.376,480Zm70.829-349.963a15.979,15.979,0,0,0,0,27.92,20.9,20.9,0,0,1-.2-2.757V132.8A20.806,20.806,0,0,1,232.205,130.037ZM136.983,295.018A24.127,24.127,0,0,1,144,312V456.022A39.788,39.788,0,0,0,120,448H32V288H48v16a8,8,0,0,0,2.343,5.657l16,16A7.976,7.976,0,0,0,72,328h56V312H91.314l2.343-2.343A8,8,0,0,0,96,304V288h24A24.132,24.132,0,0,1,136.983,295.018ZM128,408H48v16h80Zm0-32H48v16h80Zm0-32H48v16h80ZM251.033,102.3l-11.033,1V112h4.181C246.432,109.106,248.72,105.861,251.033,102.3ZM120,464H32v16H142.624A24.039,24.039,0,0,0,120,464ZM80,160a8,8,0,0,0-16,0v8H80Zm320-48V80.662a33.229,33.229,0,0,0-32-33.2V62.367c2.722,6.3,14.235,32.051,27.837,49.633ZM334.111,32H288a48.052,48.052,0,0,0-47.948,45.965l.032.007c-.017.089-.03.2-.041.323-.02.567-.043,1.133-.043,1.7v7.24l32.82-2.983A197.219,197.219,0,0,0,352,59.409V42.048A20.818,20.818,0,0,0,334.111,32ZM407.8,157.954a16.181,16.181,0,0,0,3.507-2.65A15.967,15.967,0,0,0,407.8,130.04a20.774,20.774,0,0,1,.2,2.76v22.4A20.84,20.84,0,0,1,407.8,157.954ZM348.8,128a4.805,4.805,0,0,0-4.8,4.8v22.4a4.805,4.805,0,0,0,4.8,4.8h38.4a4.805,4.805,0,0,0,4.8-4.8V132.8a4.805,4.805,0,0,0-4.8-4.8Zm-74.531-27.81-3.417.311q-3.531,6.163-7.047,11.5H291.2a20.819,20.819,0,0,1,20.709,19,45.5,45.5,0,0,1,16.182,0A20.819,20.819,0,0,1,348.8,112h27.434a292.415,292.415,0,0,1-19.978-36.678A213.315,213.315,0,0,1,274.269,100.19ZM252.8,160h38.4a4.805,4.805,0,0,0,4.8-4.8V132.8a4.805,4.805,0,0,0-4.8-4.8H252.8a4.805,4.805,0,0,0-4.8,4.8v22.4A4.805,4.805,0,0,0,252.8,160Zm75.513,157.8a7.985,7.985,0,0,1,1.287-2.6L352,285.333V249.317a79.948,79.948,0,0,1-64,0v36.017L310.4,315.2a7.985,7.985,0,0,1,1.287,2.6h0L320,346.88l8.308-29.078Zm119.094-5.3-56.318-10.544-7.166,51.151A8,8,0,0,1,371,358.247l-30.612-24.49L328,377.122V480h88V432H344V416h72V392h16v88h48V351.84A40.01,40.01,0,0,0,447.407,312.5ZM288,343.045V392h8v16h-8v72h24V377.122l-12.39-43.365ZM347.052,318.6l22.975,18.38,5.289-37.755-11.941-2.389ZM184,288h88V448H184a39.792,39.792,0,0,0-24,8.019V312A24.028,24.028,0,0,1,184,288Zm-8,104h48V376H176Zm80,16H176v16h80Zm0-32H240v16h16Zm0-32H176v16h80Zm0-32H176v16h80Zm64-72a64.057,64.057,0,0,1-64-64h35.2A20.824,20.824,0,0,0,312,155.2v-7.785a29.327,29.327,0,0,1,16,0V155.2A20.824,20.824,0,0,0,348.8,176H384a64.059,64.059,0,0,1-64,64Zm-7.066-40a115.037,115.037,0,0,0,33.385-4.9l-4.638-15.313A99.062,99.062,0,0,1,312.934,184H296v16ZM292.948,318.6,288,312h0v10.555Z"/></g></svg>
